<?xml version="1.0" encoding="UTF-8" standalone="no"?>
<!DOCTYPE svg PUBLIC "-//W3C//DTD SVG 1.1//EN" "http://www.w3.org/Graphics/SVG/1.1/DTD/svg11.dtd">
<svg width="100%" height="100%" viewBox="0 0 1072 212" version="1.1" xmlns="http://www.w3.org/2000/svg" xmlns:xlink="http://www.w3.org/1999/xlink" xml:space="preserve" xmlns:serif="http://www.serif.com/" style="fill-rule:evenodd;clip-rule:evenodd;stroke-linejoin:round;stroke-miterlimit:2;">
    <g id="Artboard1" transform="matrix(0.967643,0,0,0.928734,20.9912,17.1588)">
        <rect x="-21.693" y="-18.475" width="1107.02" height="228.241" style="fill:none;"/>
        <g transform="matrix(29.0692,0,0,30.287,-493.815,-6360.17)">
            <g transform="matrix(12,0,0,14.52,15.5838,216.759)">
                <path d="M0.207,-0.015L0.273,-0.015L0.273,0L0.066,0L0.066,-0.015L0.136,-0.015L0.136,-0.401L0.066,-0.401L0.066,-0.416L0.207,-0.416L0.207,-0.326L0.209,-0.326C0.222,-0.353 0.24,-0.385 0.261,-0.401C0.281,-0.417 0.309,-0.425 0.335,-0.426C0.36,-0.426 0.392,-0.421 0.413,-0.406C0.433,-0.39 0.447,-0.359 0.453,-0.326L0.455,-0.326C0.468,-0.358 0.486,-0.389 0.509,-0.405C0.532,-0.421 0.562,-0.429 0.598,-0.429C0.642,-0.429 0.668,-0.418 0.69,-0.395C0.711,-0.372 0.722,-0.339 0.722,-0.296L0.722,-0.015L0.786,-0.015L0.786,0L0.574,0L0.574,-0.015L0.64,-0.015L0.64,-0.31C0.64,-0.336 0.642,-0.372 0.631,-0.389C0.62,-0.406 0.591,-0.412 0.574,-0.41C0.56,-0.408 0.543,-0.403 0.53,-0.395C0.517,-0.386 0.502,-0.374 0.494,-0.359C0.484,-0.341 0.476,-0.309 0.47,-0.286C0.464,-0.263 0.465,-0.236 0.465,-0.205L0.465,-0.015L0.53,-0.015L0.53,0L0.32,0L0.32,-0.015L0.393,-0.015L0.393,-0.306C0.393,-0.332 0.387,-0.378 0.374,-0.395C0.362,-0.41 0.332,-0.406 0.316,-0.405C0.302,-0.404 0.289,-0.397 0.278,-0.389C0.265,-0.38 0.253,-0.369 0.243,-0.354C0.232,-0.339 0.223,-0.309 0.217,-0.286C0.211,-0.263 0.207,-0.236 0.207,-0.205L0.207,-0.015Z" style="fill:rgb(71,39,105);fill-rule:nonzero;"/>
            </g>
            <g transform="matrix(11.64,0,0,9.96,29.3635,216.759)">
                <path d="M0.186,-0.023L0.259,-0.023L0.259,0L0.024,0L0.024,-0.023L0.098,-0.023L0.098,-0.67L0.024,-0.67L0.024,-0.709L0.186,-0.709L0.186,-0.023Z" style="fill:rgb(71,39,105);fill-rule:nonzero;"/>
            </g>
            <g transform="matrix(10.68,0,0,14.4,32.0431,216.759)">
                <path d="M0.455,-0.017C0.444,-0.01 0.433,-0.002 0.421,0.002C0.407,0.006 0.36,0.005 0.346,0.002C0.327,-0.003 0.313,-0.011 0.305,-0.029C0.302,-0.037 0.301,-0.046 0.3,-0.054C0.299,-0.06 0.298,-0.066 0.297,-0.072C0.274,-0.039 0.273,-0.03 0.234,-0.01C0.158,0.028 0.044,-0.003 0.039,-0.097C0.035,-0.171 0.114,-0.189 0.168,-0.207C0.199,-0.218 0.23,-0.227 0.259,-0.24C0.314,-0.263 0.312,-0.348 0.279,-0.39C0.267,-0.405 0.239,-0.411 0.222,-0.411C0.211,-0.411 0.16,-0.408 0.149,-0.392C0.126,-0.36 0.177,-0.295 0.123,-0.282C0.094,-0.275 0.061,-0.291 0.065,-0.325C0.069,-0.358 0.08,-0.378 0.109,-0.397C0.148,-0.422 0.193,-0.429 0.239,-0.429C0.26,-0.429 0.281,-0.428 0.301,-0.422C0.38,-0.401 0.385,-0.331 0.385,-0.26C0.384,-0.209 0.382,-0.159 0.383,-0.108C0.383,-0.087 0.381,-0.067 0.382,-0.047C0.382,-0.038 0.38,-0.027 0.386,-0.02C0.399,-0.002 0.445,-0.028 0.455,-0.036L0.455,-0.017ZM0.297,-0.229C0.274,-0.221 0.215,-0.203 0.184,-0.188C0.171,-0.182 0.155,-0.172 0.146,-0.161C0.12,-0.13 0.127,-0.07 0.142,-0.037C0.144,-0.031 0.154,-0.025 0.16,-0.023C0.191,-0.012 0.231,-0.02 0.255,-0.045C0.265,-0.056 0.281,-0.082 0.287,-0.096C0.295,-0.115 0.298,-0.133 0.298,-0.154L0.297,-0.229Z" style="fill:rgb(71,39,105);fill-rule:nonzero;"/>
            </g>
            <g transform="matrix(10.68,0,0,14.4,24.6881,216.759)">
                <path d="M0.455,-0.017C0.444,-0.01 0.433,-0.002 0.421,0.002C0.407,0.006 0.36,0.005 0.346,0.002C0.327,-0.003 0.313,-0.011 0.305,-0.029C0.302,-0.037 0.301,-0.046 0.3,-0.054C0.299,-0.06 0.298,-0.066 0.297,-0.072C0.274,-0.039 0.273,-0.03 0.234,-0.01C0.158,0.028 0.044,-0.003 0.039,-0.097C0.035,-0.171 0.114,-0.189 0.168,-0.207C0.199,-0.218 0.23,-0.227 0.259,-0.24C0.314,-0.263 0.312,-0.348 0.279,-0.39C0.267,-0.405 0.239,-0.411 0.222,-0.411C0.211,-0.411 0.16,-0.408 0.149,-0.392C0.126,-0.36 0.177,-0.295 0.123,-0.282C0.094,-0.275 0.061,-0.291 0.065,-0.325C0.069,-0.358 0.08,-0.378 0.109,-0.397C0.148,-0.422 0.193,-0.429 0.239,-0.429C0.26,-0.429 0.281,-0.428 0.301,-0.422C0.38,-0.401 0.385,-0.331 0.385,-0.26C0.384,-0.209 0.382,-0.159 0.383,-0.108C0.383,-0.087 0.381,-0.067 0.382,-0.047C0.382,-0.038 0.38,-0.027 0.386,-0.02C0.399,-0.002 0.445,-0.028 0.455,-0.036L0.455,-0.017ZM0.297,-0.229C0.274,-0.221 0.215,-0.203 0.184,-0.188C0.171,-0.182 0.155,-0.172 0.146,-0.161C0.12,-0.13 0.127,-0.07 0.142,-0.037C0.144,-0.031 0.154,-0.025 0.16,-0.023C0.191,-0.012 0.231,-0.02 0.255,-0.045C0.265,-0.056 0.281,-0.082 0.287,-0.096C0.295,-0.115 0.298,-0.133 0.298,-0.154L0.297,-0.229Z" style="fill:rgb(71,39,105);fill-rule:nonzero;"/>
            </g>
            <g transform="matrix(12,0,0,14.4,36.6628,216.759)">
                <path d="M0.266,0L0.053,0L0.053,-0.015L0.12,-0.015L0.12,-0.404L0.053,-0.404L0.053,-0.416L0.188,-0.416L0.188,-0.34L0.19,-0.34C0.201,-0.364 0.219,-0.387 0.24,-0.403C0.25,-0.41 0.262,-0.417 0.273,-0.421C0.322,-0.438 0.376,-0.417 0.382,-0.362C0.386,-0.329 0.366,-0.282 0.324,-0.299C0.301,-0.308 0.302,-0.351 0.304,-0.367C0.306,-0.381 0.323,-0.409 0.309,-0.41C0.22,-0.395 0.188,-0.28 0.188,-0.204L0.188,-0.015L0.266,-0.015L0.266,0Z" style="fill:rgb(71,39,105);fill-rule:nonzero;"/>
            </g>
            <g transform="matrix(10.8,0,0,10.2,40.7124,216.759)">
                <path d="M0.186,-0.02L0.242,-0.02L0.242,0L0.028,0L0.028,-0.02L0.098,-0.02L0.098,-0.67L0.028,-0.67L0.028,-0.709L0.186,-0.709L0.186,-0.02ZM0.186,-0.333L0.431,-0.576L0.384,-0.576L0.384,-0.592L0.509,-0.592L0.509,-0.576L0.462,-0.576L0.259,-0.379L0.496,-0.02L0.542,-0.02L0.542,0L0.319,0L0.319,-0.02L0.385,-0.02L0.186,-0.333Z" style="fill:rgb(71,39,105);fill-rule:nonzero;"/>
            </g>
            <g transform="matrix(10.8,0,0,14.4,45.7726,216.759)">
                <path d="M0.434,-0.241L0.139,-0.241C0.134,-0.153 0.128,-0.014 0.25,-0.012C0.29,-0.011 0.337,-0.019 0.366,-0.051C0.376,-0.063 0.386,-0.074 0.393,-0.088C0.398,-0.098 0.4,-0.11 0.401,-0.12C0.411,-0.12 0.417,-0.119 0.423,-0.118C0.423,-0.099 0.412,-0.08 0.402,-0.064C0.36,0.005 0.271,0.015 0.198,-0.001C0.084,-0.026 0.027,-0.142 0.045,-0.25C0.057,-0.319 0.098,-0.382 0.163,-0.411C0.29,-0.47 0.431,-0.38 0.434,-0.241ZM0.335,-0.263C0.334,-0.299 0.342,-0.343 0.325,-0.377C0.32,-0.387 0.301,-0.399 0.291,-0.403C0.252,-0.421 0.199,-0.412 0.171,-0.378C0.142,-0.344 0.145,-0.304 0.142,-0.263L0.335,-0.263Z" style="fill:rgb(71,39,105);fill-rule:nonzero;"/>
            </g>
            <g transform="matrix(10.56,0,0,14.52,50.3672,216.759)">
                <path d="M0.315,-0.302C0.311,-0.356 0.261,-0.411 0.206,-0.411C0.161,-0.411 0.106,-0.384 0.106,-0.333C0.106,-0.291 0.147,-0.278 0.18,-0.265C0.252,-0.237 0.375,-0.218 0.37,-0.116C0.37,-0.105 0.368,-0.094 0.365,-0.084C0.346,-0.017 0.262,0.01 0.199,0.002C0.179,0 0.161,-0.007 0.141,-0.011C0.126,-0.015 0.108,-0.02 0.093,-0.022L0.069,-0.026L0.069,-0.014C0.069,-0.014 0.066,-0.011 0.056,-0.011L0.056,-0.145L0.075,-0.145C0.078,-0.105 0.089,-0.057 0.128,-0.037C0.193,-0.004 0.304,0 0.304,-0.096C0.304,-0.137 0.265,-0.155 0.233,-0.168C0.187,-0.188 0.096,-0.198 0.072,-0.25C0.015,-0.379 0.177,-0.463 0.281,-0.406C0.283,-0.405 0.309,-0.406 0.309,-0.406L0.309,-0.411C0.312,-0.411 0.32,-0.411 0.324,-0.411L0.326,-0.302L0.315,-0.302Z" style="fill:rgb(71,39,105);fill-rule:nonzero;"/>
            </g>
        </g>
    </g>
</svg>
