<?xml version="1.0" encoding="UTF-8" standalone="no"?>
<!DOCTYPE svg PUBLIC "-//W3C//DTD SVG 1.1//EN" "http://www.w3.org/Graphics/SVG/1.1/DTD/svg11.dtd">
<svg width="100%" height="100%" viewBox="0 0 1003 258" version="1.1" xmlns="http://www.w3.org/2000/svg" xmlns:xlink="http://www.w3.org/1999/xlink" xml:space="preserve" xmlns:serif="http://www.serif.com/" style="fill-rule:evenodd;clip-rule:evenodd;stroke-linejoin:round;stroke-miterlimit:2;">
    <g transform="matrix(1.19241,0,0,1.19241,-58.084,-22.7798)">
        <text x="49.126px" y="173.672px" style="font-family:'SegoeUIEmoji', 'Segoe UI Emoji', sans-serif;font-size:127px;">SOUNDER</text>
        <text x="623.85px" y="173.672px" style="font-family:'SegoeUIEmoji', 'Segoe UI Emoji', sans-serif;font-size:127px;">V</text>
        <text x="728.129px" y="173.672px" style="font-family:'SegoeUIEmoji', 'Segoe UI Emoji', sans-serif;font-size:127px;">NE</text>
    </g>
    <g transform="matrix(707.41,37.2205,-30.2759,575.421,453.28,428.391)">
        <path d="M0.461,-0.901L0.461,-0.901ZM0.341,-0.726L0.341,-0.726C0.352,-0.729 0.363,-0.73 0.373,-0.73C0.391,-0.73 0.41,-0.726 0.432,-0.718L0.432,-0.717C0.417,-0.717 0.399,-0.711 0.377,-0.699C0.36,-0.688 0.348,-0.675 0.343,-0.66C0.341,-0.655 0.34,-0.65 0.34,-0.645L0.34,-0.639L0.341,-0.637L0.342,-0.637C0.349,-0.647 0.358,-0.656 0.371,-0.665C0.393,-0.679 0.417,-0.686 0.444,-0.686L0.448,-0.686C0.452,-0.686 0.454,-0.685 0.454,-0.684C0.455,-0.608 0.456,-0.55 0.456,-0.51L0.456,-0.468C0.456,-0.437 0.455,-0.408 0.454,-0.382C0.451,-0.377 0.449,-0.373 0.449,-0.371L0.449,-0.369C0.45,-0.366 0.45,-0.364 0.451,-0.364L0.484,-0.364L0.484,-0.365C0.479,-0.38 0.476,-0.398 0.476,-0.418C0.472,-0.482 0.469,-0.551 0.469,-0.626L0.469,-0.655L0.47,-0.682C0.484,-0.682 0.504,-0.675 0.527,-0.662C0.537,-0.656 0.547,-0.648 0.558,-0.639L0.566,-0.637L0.566,-0.637C0.566,-0.648 0.559,-0.664 0.543,-0.685C0.535,-0.693 0.527,-0.698 0.521,-0.701C0.512,-0.706 0.503,-0.71 0.493,-0.714L0.493,-0.715C0.506,-0.719 0.522,-0.722 0.542,-0.722L0.569,-0.721C0.574,-0.722 0.577,-0.723 0.577,-0.724C0.561,-0.739 0.538,-0.747 0.508,-0.747L0.506,-0.747C0.495,-0.747 0.484,-0.742 0.471,-0.733C0.471,-0.736 0.469,-0.743 0.464,-0.755L0.463,-0.755L0.457,-0.741C0.441,-0.751 0.423,-0.757 0.403,-0.757L0.403,-0.757C0.369,-0.757 0.349,-0.746 0.341,-0.726Z" style="fill-rule:nonzero;"/>
    </g>
</svg>
